<svg width="24" height="24" viewBox="0 0 24 24" fill="none"
    xmlns="http://www.w3.org/2000/svg">
  <g stroke="currentColor" stroke-width="1.9" stroke-linecap="round" stroke-linejoin="round">
    <!-- core -->
    <circle cx="12" cy="12" r="2.3"/>
    <circle cx="12" cy="12" r="4.8"/>

    <!-- crosshair axes -->
    <path d="M12 1.9v4.2"/>
    <path d="M12 17.9v4.2"/>
    <path d="M1.9 12h4.2"/>
    <path d="M17.9 12h4.2"/>

    <!-- orbital arcs -->
    <path d="M7.8 8.4A6 6 0 0 1 10.1 6.9"/>
    <path d="M13.9 6.9A6 6 0 0 1 16.2 8.4"/>
    <path d="M16.2 15.6A6 6 0 0 1 13.9 17.1"/>
    <path d="M10.1 17.1A6 6 0 0 1 7.8 15.6"/>

    <!-- corner nodes -->
    <circle cx="5.2" cy="5.2" r="1.7"/>
    <circle cx="18.8" cy="5.2" r="1.7"/>
    <circle cx="18.8" cy="18.8" r="1.7"/>
    <circle cx="5.2" cy="18.8" r="1.7"/>

    <!-- corner branches -->
    <path d="M6.9 5.2h1.5c.9 0 1.4.5 1.4 1.4v1.5"/>
    <path d="M17.1 5.2h-1.5c-.9 0-1.4.5-1.4 1.4v1.5"/>
    <path d="M17.1 18.8h-1.5c-.9 0-1.4-.5-1.4-1.4v-1.5"/>
    <path d="M6.9 18.8h1.5c.9 0 1.4-.5 1.4-1.4v-1.5"/>

    <!-- small signal ticks -->
    <path d="M8.1 10.1l-1-.6"/>
    <path d="M15.9 10.1l1-.6"/>
    <path d="M15.9 13.9l1 .6"/>
    <path d="M8.1 13.9l-1 .6"/>
  </g>
</svg>
